<svg viewBox="0 0 1016.818 165.924" width="1355.758" height="221.232" xmlns="http://www.w3.org/2000/svg">
   <path
      d="M139.255.035c3.78-.34 6.69 1.84 7.64 5.42.87 3.26-1.15 7.38-4.47 8.33-3.46 1.75-6.66-.27-9.17-2.54-4.82-.58-10.1.07-15-.09-12.25.31-24.74.26-37 .41-2.19.28-4.03-.69-5.28 1.69-9.57 15.79-18.79 31.76-28.32 47.58-1 2.2-3.3 3.98-2.37 6.62 1.17 4.34-1.5 8.75-6.03 9.11-4.71.88-8.94-3.36-8.11-8.11.55-4.32 3.68-6.01 7.71-6.4 11.34-19.03 22.63-38.04 33.86-57.14 19.76-.71 40.18-.3 60.08-.92 2.08-1.95 3.17-3.97 6.46-3.96z"
      fill="#0e0e55" />
   <path d="M143.285 7.455c.2 3.12-4.3 4.29-6.13 2.1-1.24-1.01-1.33-4.07.2-4.93 2.02-2.53 6.67-.37 5.93 2.83z"
      fill="#fff" />
   <path
      d="M54.505 9.055c3.99.97 6.14 5.65 4.8 9.4-.76 2.56-3.54 4.3-6.05 4.77-1.58.03-2.42.86-3 2.23-8.59 14.26-16.93 28.18-25.6 42.38-.58 1.42-2.35 2.99-2.12 4.57 3.91 7.41 8.6 14.67 12.65 22.05 4.1 6.49 8.86 15.74 13.11 21.78 4.7.94 8.21 5.59 6.18 10.26-1.2 3.31-4.83 4.92-8.22 4.26-3.9-.63-6.95-5-5.54-8.85.67-1.33 1.19-2.77.14-4.07-8.71-14.95-17.48-29.86-26.14-44.84-.91-1.85.87-3.04 1.54-4.54 9.3-15.67 18.9-31.27 28.22-46.9 1.45-1.64 1.09-3.13.78-5.1-.77-4.71 4.81-9.3 9.25-7.4z"
      fill="#4d4dce" />
   <path d="M50.585 12.785c2.89-1.23 5.51.66 5.56 3.67-.63 2.16-2.58 3.59-4.89 2.95-2.92-.91-2.92-4.97-.67-6.62z"
      fill="#fff" />
   <path
      d="M88.255 16.455c2.68-.15 4.92 1.48 6.46 3.54 15.61.42 31.86-.04 47.54.23 2.5 1.8 3.88 6 5.67 8.53 8.25 14.41 16.59 28.78 24.87 43.15 1.91 1.42 4.19 1.18 5.71 3.35 2.14 1.93 1.9 4.6 1.45 7.2-1.41 3.6-5.5 5.74-9.25 4.54-2.31-1.44-4.54-2.46-4.68-5.54-1.4-3.43 2.21-5.05-.49-8.2-8.27-14.41-16.62-28.77-24.88-43.18-.78-1.31-1.54-3.3-3.4-3.04-13.67-.01-27.33 0-41 0-2.16-.02-2.18 1.77-3.88 2.67-3.99 2.94-10.09.59-11.17-4.25-.98-4.42 2.4-9.14 7.05-9z"
      fill="#4d4dce" />
   <path d="M91.895 23.455c.42 2.37-2.4 4.59-4.64 3.82-2.23-.57-3.55-3.89-1.78-5.65 2.03-2.65 5.95-1.37 6.42 1.83z"
      fill="#fff" />
   <path
      d="M138.225 39.455c.35 1.75-1.27 3.09-.57 4.62 10.69 18.32 21.44 36.62 32 55.04.86 1.05-.52 1.79-.86 2.88-8.31 14.56-16.97 28.94-25.32 43.5-1.47 2.46-3.43 5.23-4.22 7.96 1.2 4-.07 8.22-4.25 9.6-4.53 1.64-8.75-1.09-9.72-5.6-.44-4.04 2.53-8.62 6.97-8.36 1.86-.32 1.76-1.65 2.72-2.84 8.95-15.4 17.94-30.76 26.95-46.1-.16-1.92-2.32-3.68-2.89-5.66-5.95-10.14-12.54-21.36-18.32-31.5-3.42-5.14-6.06-11.23-9.84-16.14-1.18-.47-2.95-.2-3.82-1.15-4.51-2.68-4.32-9.72.08-12.45 4.82-2.77 11.05.55 11.09 6.2z"
      fill="#0e0e55" />
   <path
      d="M128.555 36.785c1.5-.99 3.76-1.14 4.98.39 2.52 2.35-.59 7.17-3.82 5.82-2.57-1.3-3.27-4.09-1.16-6.21zM42.025 69.455c.2 2.39-2.73 4.68-4.93 3.33-2.57-.66-2.78-3.96-1.3-5.79 1.97-2.07 6.42-.38 6.23 2.46zM171.455 76.735c1.21-.48 2.95-.47 3.92.52 2.23 1.89 1.14 6.33-2.12 6.32-3.91-.07-5.44-4.75-1.8-6.84z"
      fill="#fff" />
   <path
      d="M6.255 77.635c4.34-.31 8.57 3.26 8.08 7.82.14 2.16-1.64 3.06-.26 5 8.16 14.6 17.38 30.24 25.46 44.8.9.93 1.3 2.99 2.72 3.23 17.04.07 33.94-.01 51 .13 1.93-.3 2.13-2.39 4-3.04 5.38-3.45 12.73 2.49 10.54 8.45-1.37 5.7-10.02 7.11-13 1.89-.76-.33-1.61-.46-2.54-.4-17.93.01-35.95-.07-54-.09-1.43-.19-1.65-2.41-2.72-3.22-7.69-13.93-15.8-27.56-23.58-41.45-2.3-2.47-3.11-8.2-6.77-8.97-3.94-.93-5.73-4.44-5.04-8.33.44-3.31 3.09-5 6.11-5.82z"
      fill="#0e0e55" />
   <path d="M5.455 81.735c2.31-.9 4.9.05 5.16 2.72.8 3.41-4.14 5.55-6.11 2.8-1.87-1.79-.87-4.19.95-5.52z" fill="#fff" />
   <path
      d="M145.255 95.225c3.4.01 5.9 3.17 6.64 6.23.4 3.4-1.57 6.45-4.64 7.85-1.67.41-2.65-.19-3.46 1.69-8.98 16.44-19.32 34.6-28 51-19.82.42-40.62-.04-60.54.23-1.62.6-2.26 2.51-4 3.11-2.56.99-6.56.9-8.3-1.57-2.59-2.41-2.85-6.54-.7-9.31 3.11-4.49 9.44-3.5 12.4.6 17.73.43 36.68.16 54.6.23 1.67.16 2.45-.37 3.18-1.83 8.48-15.64 17.84-32.01 25.79-47-1.05-2.69-1.59-5.36.25-7.9 1.49-2.46 3.93-3.51 6.78-3.33z"
      fill="#4d4dce" />
   <path
      d="M146.305 99.205c2.85 1.59 2.33 5.83-.8 6.65-2 1.01-4.57-1.36-4.42-3.4-.1-2.58 2.89-4.7 5.22-3.25zM46.255 120.535c1.75-.29 3.71-.55 4.46 1.46 2.19 2.99-1.95 6.81-4.84 4.86-2.5-1.45-1.99-5.2.38-6.32zM101.255 138.345c2.94.2 4.24 4.24 2.1 6.21-1.21 1.43-3.84 1.12-5.1-.16-2.3-1.84-.19-6.73 3-6.05zM136.005 157.455c-.27 1.32-2.57 2.97-3.82 2.33-3.11-.34-4.25-4.26-1.83-6.16 2.57-2.76 6.78.69 5.65 3.83zM50.505 156.205c2.15 1.86.9 6.39-2.25 6.19-1.97.28-4.05-2.02-3.83-3.94.22-2.71 4.22-4.34 6.08-2.25z"
      fill="#fff" />
   <g fill="#4d4dce">
      <path
         d="M209.616 130.13v-89.6h7.808l40.96 69.888h-4.096l40.576-69.888h7.808v89.6h-9.088V54.738h2.176l-37.376 64h-4.48l-37.632-64h2.432v75.392zM357.328 130.77q-9.728 0-17.536-4.352-7.68-4.48-12.16-12.16-4.48-7.808-4.48-17.792 0-10.112 4.48-17.792 4.48-7.68 12.16-12.032t17.536-4.352q9.984 0 17.664 4.352 7.808 4.352 12.16 12.032 4.48 7.68 4.48 17.792 0 9.984-4.48 17.792-4.352 7.68-12.16 12.16-7.808 4.352-17.664 4.352zm0-8.064q7.296 0 12.928-3.2 5.632-3.328 8.832-9.216 3.328-6.016 3.328-13.824 0-7.936-3.328-13.824-3.2-5.888-8.832-9.088-5.632-3.328-12.8-3.328-7.168 0-12.8 3.328-5.632 3.2-8.96 9.088-3.328 5.888-3.328 13.824 0 7.808 3.328 13.824 3.328 5.888 8.96 9.216 5.632 3.2 12.672 3.2zM436.944 130.77q-9.6 0-17.28-4.352-7.552-4.352-11.904-12.032-4.352-7.808-4.352-17.92 0-10.24 4.352-17.92 4.352-7.68 11.904-11.904 7.68-4.352 17.28-4.352 8.832 0 15.744 3.968 7.04 3.968 11.136 11.648 4.224 7.552 4.224 18.56 0 10.88-4.096 18.56-4.096 7.68-11.136 11.776-6.912 3.968-15.872 3.968zm.64-8.064q7.168 0 12.8-3.2 5.76-3.328 8.96-9.216 3.328-6.016 3.328-13.824 0-7.936-3.328-13.824-3.2-5.888-8.96-9.088-5.632-3.328-12.8-3.328-7.04 0-12.672 3.328-5.632 3.2-8.96 9.088-3.328 5.888-3.328 13.824 0 7.808 3.328 13.824 3.328 5.888 8.96 9.216 5.632 3.2 12.672 3.2zm25.344 7.424v-20.224l.896-13.568-1.28-13.568V35.154h9.088v94.976zM525.52 130.77q-10.496 0-18.432-4.352-7.936-4.48-12.416-12.16-4.48-7.808-4.48-17.792 0-9.984 4.224-17.664 4.352-7.68 11.776-12.032 7.552-4.48 16.896-4.48 9.472 0 16.768 4.352 7.424 4.224 11.648 12.032 4.224 7.68 4.224 17.792 0 .64-.128 1.408v1.408h-58.496v-6.784h53.632l-3.584 2.688q0-7.296-3.2-12.928-3.072-5.76-8.448-8.96-5.376-3.2-12.416-3.2-6.912 0-12.416 3.2-5.504 3.2-8.576 8.96-3.072 5.76-3.072 13.184v1.408q0 7.68 3.328 13.568 3.456 5.76 9.472 9.088 6.144 3.2 13.952 3.2 6.144 0 11.392-2.176 5.376-2.176 9.216-6.656l5.12 5.888q-4.48 5.376-11.264 8.192-6.656 2.816-14.72 2.816zM574.288 130.13v-67.2h8.704v18.304l-.896-3.2q2.816-7.68 9.472-11.648 6.656-4.096 16.512-4.096v8.832h-1.024q-.512-.128-1.024-.128-10.624 0-16.64 6.528-6.016 6.4-6.016 18.304v34.304zM658.93 62.29q8.192 0 14.336 3.2 6.272 3.072 9.728 9.472 3.584 6.4 3.584 16.128v39.04h-9.088V91.986q0-10.624-5.376-16-5.248-5.504-14.848-5.504-7.168 0-12.544 2.944-5.248 2.816-8.192 8.32-2.816 5.376-2.816 13.056v35.328h-9.088v-67.2h8.704v18.432l-1.408-3.456q3.2-7.296 10.24-11.392 7.04-4.224 16.768-4.224zM713.074 130.13v-89.6h36.48q14.336 0 25.088 5.76 10.88 5.632 16.896 15.744t6.016 23.296q0 13.184-6.016 23.296t-16.896 15.872q-10.752 5.632-25.088 5.632zm9.472-8.192h26.496q11.904 0 20.608-4.608 8.832-4.736 13.696-12.928 4.864-8.32 4.864-19.072 0-10.88-4.864-19.072-4.864-8.192-13.696-12.8-8.704-4.736-20.608-4.736h-26.496zM858.994 130.13v-14.848l-.384-2.432V88.018q0-8.576-4.864-13.184-4.736-4.608-14.208-4.608-6.528 0-12.416 2.176-5.888 2.176-9.984 5.76l-4.096-6.784q5.12-4.352 12.288-6.656 7.168-2.432 15.104-2.432 13.056 0 20.096 6.528 7.168 6.4 7.168 19.584v41.728zm-23.168.64q-7.552 0-13.184-2.432-5.504-2.56-8.448-6.912-2.944-4.48-2.944-10.24 0-5.248 2.432-9.472 2.56-4.352 8.192-6.912 5.76-2.688 15.36-2.688h23.168v6.784H837.49q-9.728 0-13.568 3.456-3.712 3.456-3.712 8.576 0 5.76 4.48 9.216 4.48 3.456 12.544 3.456 7.68 0 13.184-3.456 5.632-3.584 8.192-10.24l2.048 6.272q-2.56 6.656-8.96 10.624-6.272 3.968-15.872 3.968zM910.45 130.77q-8.32 0-15.744-2.304-7.424-2.432-11.648-6.016l4.096-7.168q4.096 3.072 10.496 5.376 6.4 2.176 13.44 2.176 9.6 0 13.824-2.944 4.224-3.072 4.224-8.064 0-3.712-2.432-5.76-2.304-2.176-6.144-3.2-3.84-1.152-8.576-1.92-4.736-.768-9.472-1.792-4.608-1.024-8.448-2.944-3.84-2.048-6.272-5.504-2.304-3.456-2.304-9.216 0-5.504 3.072-9.856t8.96-6.784q6.016-2.56 14.592-2.56 6.528 0 13.056 1.792 6.528 1.664 10.752 4.48l-3.968 7.296q-4.48-3.072-9.6-4.352-5.12-1.408-10.24-1.408-9.088 0-13.44 3.2-4.224 3.072-4.224 7.936 0 3.84 2.304 6.016 2.432 2.176 6.272 3.456 3.968 1.152 8.576 1.92 4.736.768 9.344 1.92 4.736 1.024 8.576 2.944 3.968 1.792 6.272 5.248 2.432 3.328 2.432 8.832 0 5.888-3.328 10.24-3.2 4.224-9.472 6.656-6.144 2.304-14.976 2.304zM989.17 62.29q8.193 0 14.337 3.2 6.272 3.072 9.728 9.472 3.583 6.4 3.583 16.128v39.04h-9.088V91.986q0-10.624-5.376-16-5.247-5.504-14.847-5.504-7.168 0-12.544 2.944-5.248 2.816-8.192 8.32-2.816 5.376-2.816 13.056v35.328h-9.088V35.154h9.088v46.208l-1.792-3.456q3.2-7.296 10.24-11.392 7.04-4.224 16.768-4.224z" />
   </g>
</svg>