<?xml version="1.0" encoding="UTF-8" standalone="no"?>
<svg
   version="1.1"
   viewBox="0 0 180.25823 165.92433"
   width="180.25822pt"
   height="165.92433pt"
   id="svg68"
   sodipodi:docname="moderndashIcon.svg"
   inkscape:version="1.2.1 (9c6d41e410, 2022-07-14)"
   xmlns:inkscape="http://www.inkscape.org/namespaces/inkscape"
   xmlns:sodipodi="http://sodipodi.sourceforge.net/DTD/sodipodi-0.dtd"
   xmlns="http://www.w3.org/2000/svg"
   xmlns:svg="http://www.w3.org/2000/svg">
  <defs
     id="defs72">
    <linearGradient
       id="linearGradient2364"
       inkscape:swatch="solid">
      <stop
         style="stop-color:#a6a6e7;stop-opacity:1;"
         offset="0"
         id="stop2362" />
    </linearGradient>
  </defs>
  <sodipodi:namedview
     id="namedview70"
     pagecolor="#ffffff"
     bordercolor="#000000"
     borderopacity="0.25"
     inkscape:showpageshadow="2"
     inkscape:pageopacity="0.0"
     inkscape:pagecheckerboard="true"
     inkscape:deskcolor="#d1d1d1"
     inkscape:document-units="pt"
     showgrid="false"
     inkscape:zoom="0.87475822"
     inkscape:cx="660.75401"
     inkscape:cy="102.88557"
     inkscape:window-width="1920"
     inkscape:window-height="1009"
     inkscape:window-x="-8"
     inkscape:window-y="-8"
     inkscape:window-maximized="1"
     inkscape:current-layer="svg68" />
  <path
     d="m 139.25488,0.03475658 c 3.78,-0.34 6.69,1.84000002 7.64,5.41999982 0.87,3.26 -1.15,7.3799996 -4.47,8.3299996 -3.46,1.75 -6.66,-0.27 -9.17,-2.54 -4.82,-0.58 -10.1,0.07 -15,-0.09 -12.25,0.31 -24.739997,0.26 -36.999997,0.41 -2.19,0.28 -4.03,-0.69 -5.28,1.69 -9.57,15.79 -18.79,31.76 -28.32,47.58 -1,2.2 -3.3,3.98 -2.37,6.62 1.17,4.34 -1.5,8.75 -6.03,9.11 -4.71,0.88 -8.94,-3.36 -8.11,-8.11 0.55,-4.32 3.68,-6.01 7.71,-6.4 11.34,-19.03 22.63,-38.04 33.86,-57.1399996 19.76,-0.71 40.179997,-0.3 60.079997,-0.92 2.08,-1.95 3.17,-3.96999982 6.46,-3.95999982 z"
     fill="#0e0e55"
     id="path2" />
  <path
     d="m 143.28488,7.4547564 c 0.2,3.1199996 -4.3,4.2899996 -6.13,2.1 -1.24,-1.01 -1.33,-4.07 0.2,-4.93 2.02,-2.53 6.67,-0.37 5.93,2.83 z"
     fill="#ffffff"
     id="path4" />
  <path
     d="m 54.504883,9.0547564 c 3.99,0.9699996 6.14,5.6499996 4.8,9.3999996 -0.76,2.56 -3.54,4.3 -6.05,4.77 -1.58,0.03 -2.42,0.86 -3,2.23 -8.59,14.26 -16.93,28.18 -25.6,42.38 -0.58,1.42 -2.35,2.99 -2.12,4.57 3.91,7.41 8.6,14.67 12.65,22.049999 4.1,6.490005 8.86,15.740005 13.11,21.780005 4.7,0.94 8.21,5.59 6.18,10.26 -1.2,3.31 -4.83,4.92 -8.22,4.26 -3.9,-0.63 -6.95,-5 -5.54,-8.85 0.67,-1.33 1.19,-2.77 0.14,-4.07 -8.71,-14.95 -17.48,-29.860004 -26.14,-44.840004 -0.91,-1.85 0.87,-3.04 1.54,-4.54 9.3,-15.67 18.9,-31.27 28.22,-46.9 1.45,-1.64 1.09,-3.13 0.78,-5.1 -0.77,-4.71 4.81,-9.2999996 9.25,-7.3999996 z"
     fill="#4d4dce"
     id="path6" />
  <path
     d="m 50.584883,12.784756 c 2.89,-1.23 5.51,0.66 5.56,3.67 -0.63,2.16 -2.58,3.59 -4.89,2.95 -2.92,-0.91 -2.92,-4.97 -0.67,-6.62 z"
     fill="#ffffff"
     id="path8" />
  <path
     d="m 88.254883,16.454756 c 2.68,-0.15 4.92,1.48 6.46,3.54 15.609997,0.42 31.859997,-0.04 47.539997,0.23 2.5,1.8 3.88,6 5.67,8.53 8.25,14.41 16.59,28.78 24.87,43.15 1.91,1.42 4.19,1.18 5.71,3.35 2.14,1.93 1.9,4.6 1.45,7.2 -1.41,3.6 -5.5,5.74 -9.25,4.54 -2.31,-1.44 -4.54,-2.46 -4.68,-5.54 -1.4,-3.43 2.21,-5.05 -0.49,-8.2 -8.27,-14.41 -16.62,-28.77 -24.88,-43.18 -0.78,-1.31 -1.54,-3.3 -3.4,-3.04 -13.67,-0.01 -27.33,0 -40.999997,0 -2.16,-0.02 -2.18,1.77 -3.88,2.67 -3.99,2.94 -10.09,0.59 -11.17,-4.25 -0.98,-4.42 2.4,-9.14 7.05,-9 z"
     fill="#4d4dce"
     id="path10" />
  <path
     d="m 91.894883,23.454756 c 0.42,2.37 -2.4,4.59 -4.64,3.82 -2.23,-0.57 -3.55,-3.89 -1.78,-5.65 2.03,-2.65 5.95,-1.37 6.42,1.83 z"
     fill="#ffffff"
     id="path12" />
  <path
     d="m 138.22488,39.454756 c 0.35,1.75 -1.27,3.09 -0.57,4.62 10.69,18.32 21.44,36.62 32,55.039999 0.86,1.050005 -0.52,1.790005 -0.86,2.880005 -8.31,14.56 -16.97,28.94 -25.32,43.5 -1.47,2.46 -3.43,5.23 -4.22,7.96 1.2,4 -0.07,8.22 -4.25,9.6 -4.53,1.64 -8.75,-1.09 -9.72,-5.6 -0.44,-4.04 2.53,-8.62 6.97,-8.36 1.86,-0.32 1.76,-1.65 2.72,-2.84 8.95,-15.4 17.94,-30.76 26.95,-46.1 -0.16,-1.920005 -2.32,-3.680005 -2.89,-5.660005 -5.95,-10.139999 -12.54,-21.359999 -18.32,-31.499999 -3.42,-5.14 -6.06,-11.23 -9.84,-16.14 -1.18,-0.47 -2.95,-0.2 -3.82,-1.15 -4.51,-2.68 -4.32,-9.72 0.08,-12.45 4.82,-2.77 11.05,0.55 11.09,6.2 z"
     fill="#0e0e55"
     id="path14" />
  <path
     d="m 128.55488,36.784756 c 1.5,-0.99 3.76,-1.14 4.98,0.39 2.52,2.35 -0.59,7.17 -3.82,5.82 -2.57,-1.3 -3.27,-4.09 -1.16,-6.21 z"
     fill="#ffffff"
     id="path16" />
  <path
     d="m 42.024883,69.454756 c 0.2,2.39 -2.73,4.68 -4.93,3.33 -2.57,-0.66 -2.78,-3.96 -1.3,-5.79 1.97,-2.07 6.42,-0.38 6.23,2.46 z"
     fill="#ffffff"
     id="path28" />
  <path
     d="m 171.45488,76.734756 c 1.21,-0.48 2.95,-0.47 3.92,0.52 2.23,1.89 1.14,6.33 -2.12,6.32 -3.91,-0.07 -5.44,-4.75 -1.8,-6.84 z"
     fill="#ffffff"
     id="path42" />
  <path
     d="m 6.2548828,77.634756 c 4.3400002,-0.31 8.5700002,3.26 8.0800002,7.82 0.14,2.16 -1.64,3.06 -0.26,5 8.16,14.600004 17.38,30.240004 25.46,44.800004 0.9,0.93 1.3,2.99 2.72,3.23 17.04,0.07 33.94,-0.01 51,0.13 1.93,-0.3 2.13,-2.39 4,-3.04 5.379997,-3.45 12.729997,2.49 10.539997,8.45 -1.37,5.7 -10.019997,7.11 -12.999997,1.89 -0.76,-0.33 -1.61,-0.46 -2.54,-0.4 -17.93,0.01 -35.95,-0.07 -54,-0.09 -1.43,-0.19 -1.65,-2.41 -2.72,-3.22 -7.69,-13.93 -15.8,-27.56 -23.58,-41.45 -2.3000002,-2.470005 -3.1100002,-8.200005 -6.7700002,-8.970004 -3.94,-0.93 -5.72999996,-4.44 -5.03999996,-8.33 0.44,-3.31 3.08999996,-5 6.10999996,-5.82 z"
     fill="#0e0e55"
     id="path44" />
  <path
     d="m 5.4548828,81.734756 c 2.31,-0.9 4.9000002,0.05 5.1600002,2.72 0.8,3.41 -4.1400002,5.55 -6.1100002,2.8 -1.87,-1.79 -0.87,-4.19 0.95,-5.52 z"
     fill="#ffffff"
     id="path52" />
  <path
     d="m 145.25488,95.224755 c 3.4,0.01 5.9,3.17 6.64,6.230005 0.4,3.4 -1.57,6.45 -4.64,7.85 -1.67,0.41 -2.65,-0.19 -3.46,1.69 -8.98,16.44 -19.32,34.6 -28,51 -19.819997,0.42 -40.619997,-0.04 -60.539997,0.23 -1.62,0.6 -2.26,2.51 -4,3.11 -2.56,0.99 -6.56,0.9 -8.3,-1.57 -2.59,-2.41 -2.85,-6.54 -0.7,-9.31 3.11,-4.49 9.44,-3.5 12.4,0.6 17.73,0.43 36.68,0.16 54.599997,0.23 1.67,0.16 2.45,-0.37 3.18,-1.83 8.48,-15.64 17.84,-32.01 25.79,-47 -1.05,-2.69 -1.59,-5.36 0.25,-7.900005 1.49,-2.46 3.93,-3.51 6.78,-3.33 z"
     fill="#4d4dce"
     id="path54" />
  <path
     d="m 146.30488,99.204755 c 2.85,1.590005 2.33,5.830005 -0.8,6.650005 -2,1.01 -4.57,-1.36 -4.42,-3.4 -0.1,-2.580005 2.89,-4.700005 5.22,-3.250005 z"
     fill="#ffffff"
     id="path56" />
  <path
     d="m 46.254883,120.53476 c 1.75,-0.29 3.71,-0.55 4.46,1.46 2.19,2.99 -1.95,6.81 -4.84,4.86 -2.5,-1.45 -1.99,-5.2 0.38,-6.32 z"
     fill="#ffffff"
     id="path60" />
  <path
     d="m 101.25488,138.34476 c 2.94,0.2 4.24,4.24 2.1,6.21 -1.21,1.43 -3.839997,1.12 -5.099997,-0.16 -2.3,-1.84 -0.19,-6.73 2.999997,-6.05 z"
     fill="#ffffff"
     id="path62" />
  <path
     d="m 136.00488,157.45476 c -0.27,1.32 -2.57,2.97 -3.82,2.33 -3.11,-0.34 -4.25,-4.26 -1.83,-6.16 2.57,-2.76 6.78,0.69 5.65,3.83 z"
     fill="#ffffff"
     id="path64" />
  <path
     d="m 50.504883,156.20476 c 2.15,1.86 0.9,6.39 -2.25,6.19 -1.97,0.28 -4.05,-2.02 -3.83,-3.94 0.22,-2.71 4.22,-4.34 6.08,-2.25 z"
     fill="#ffffff"
     id="path66" />
</svg>
