<?xml version="1.0" encoding="UTF-8" standalone="no"?>
<!DOCTYPE svg PUBLIC "-//W3C//DTD SVG 1.1//EN" "http://www.w3.org/Graphics/SVG/1.1/DTD/svg11.dtd">
<svg xmlns="http://www.w3.org/2000/svg" version="1.1" viewBox="0 0 1034 182" width="1034.0pt" height="182.0pt">
<path d="M 0.00 0.00 L 1034.00 0.00 L 1034.00 182.00 L 0.00 182.00 L 0.00 0.00 Z" fill="#ffffff" />
<path d="M 144.00 6.58 C 147.78 6.24 150.69 8.42 151.64 12.00 C 152.51 15.26 150.49 19.38 147.17 20.33 C 143.71 22.08 140.51 20.06 138.00 17.79 C 133.18 17.21 127.90 17.86 123.00 17.70 C 110.75 18.01 98.26 17.96 86.00 18.11 C 83.81 18.39 81.97 17.42 80.72 19.80 C 71.15 35.59 61.93 51.56 52.40 67.38 C 51.40 69.58 49.10 71.36 50.03 74.00 C 51.20 78.34 48.53 82.75 44.00 83.11 C 39.29 83.99 35.06 79.75 35.89 75.00 C 36.44 70.68 39.57 68.99 43.60 68.60 C 54.94 49.57 66.23 30.56 77.46 11.46 C 97.22 10.75 117.64 11.16 137.54 10.54 C 139.62 8.59 140.71 6.57 144.00 6.58 Z" fill="#0e0e55" />
<path d="M 148.03 14.00 C 148.23 17.12 143.73 18.29 141.90 16.10 C 140.66 15.09 140.57 12.03 142.10 11.17 C 144.12 8.64 148.77 10.80 148.03 14.00 Z" fill="#ffffff" />
<path d="M 59.25 15.60 C 63.24 16.57 65.39 21.25 64.05 25.00 C 63.29 27.56 60.51 29.30 58.00 29.77 C 56.42 29.80 55.58 30.63 55.00 32.00 C 46.41 46.26 38.07 60.18 29.40 74.38 C 28.82 75.80 27.05 77.37 27.28 78.95 C 31.19 86.36 35.88 93.62 39.93 101.00 C 44.03 107.49 48.79 116.74 53.04 122.78 C 57.74 123.72 61.25 128.37 59.22 133.04 C 58.02 136.35 54.39 137.96 51.00 137.30 C 47.10 136.67 44.05 132.30 45.46 128.45 C 46.13 127.12 46.65 125.68 45.60 124.38 C 36.89 109.43 28.12 94.52 19.46 79.54 C 18.55 77.69 20.33 76.50 21.00 75.00 C 30.30 59.33 39.90 43.73 49.22 28.10 C 50.67 26.46 50.31 24.97 50.00 23.00 C 49.23 18.29 54.81 13.70 59.25 15.60 Z" fill="#4d4dce" />
<path d="M 55.33 19.33 C 58.22 18.10 60.84 19.99 60.89 23.00 C 60.26 25.16 58.31 26.59 56.00 25.95 C 53.08 25.04 53.08 20.98 55.33 19.33 Z" fill="#ffffff" />
<path d="M 93.00 23.00 C 95.68 22.85 97.92 24.48 99.46 26.54 C 115.07 26.96 131.32 26.50 147.00 26.77 C 149.50 28.57 150.88 32.77 152.67 35.30 C 160.92 49.71 169.26 64.08 177.54 78.45 C 179.45 79.87 181.73 79.63 183.25 81.80 C 185.39 83.73 185.15 86.40 184.70 89.00 C 183.29 92.60 179.20 94.74 175.45 93.54 C 173.14 92.10 170.91 91.08 170.77 88.00 C 169.37 84.57 172.98 82.95 170.28 79.80 C 162.01 65.39 153.66 51.03 145.40 36.62 C 144.62 35.31 143.86 33.32 142.00 33.58 C 128.33 33.57 114.67 33.58 101.00 33.58 C 98.84 33.56 98.82 35.35 97.12 36.25 C 93.13 39.19 87.03 36.84 85.95 32.00 C 84.97 27.58 88.35 22.86 93.00 23.00 Z" fill="#4d4dce" />
<path d="M 96.64 30.00 C 97.06 32.37 94.24 34.59 92.00 33.82 C 89.77 33.25 88.45 29.93 90.22 28.17 C 92.25 25.52 96.17 26.80 96.64 30.00 Z" fill="#ffffff" />
<path d="M 142.97 46.00 C 143.32 47.75 141.70 49.09 142.40 50.62 C 153.09 68.94 163.84 87.24 174.40 105.66 C 175.26 106.71 173.88 107.45 173.54 108.54 C 165.23 123.10 156.57 137.48 148.22 152.04 C 146.75 154.50 144.79 157.27 144.00 160.00 C 145.20 164.00 143.93 168.22 139.75 169.60 C 135.22 171.24 131.00 168.51 130.03 164.00 C 129.59 159.96 132.56 155.38 137.00 155.64 C 138.86 155.32 138.76 153.99 139.72 152.80 C 148.67 137.40 157.66 122.04 166.67 106.70 C 166.51 104.78 164.35 103.02 163.78 101.04 C 157.83 90.90 151.24 79.68 145.46 69.54 C 142.04 64.40 139.40 58.31 135.62 53.40 C 134.44 52.93 132.67 53.20 131.80 52.25 C 127.29 49.57 127.48 42.53 131.88 39.80 C 136.70 37.03 142.93 40.35 142.97 46.00 Z" fill="#0e0e55" />
<path d="M 133.30 43.33 C 134.80 42.34 137.06 42.19 138.28 43.72 C 140.80 46.07 137.69 50.89 134.46 49.54 C 131.89 48.24 131.19 45.45 133.30 43.33 Z" fill="#ffffff" />
<path d="M 741.00 48.96 C 755.91 48.04 771.98 47.98 785.00 56.17 C 794.87 62.16 800.31 72.27 802.57 83.32 C 804.88 96.19 804.74 110.16 800.57 122.63 C 797.50 131.58 791.33 139.29 782.94 143.75 C 768.83 151.37 753.56 150.48 738.00 149.75 C 734.48 148.95 730.98 149.19 727.46 148.54 C 727.11 147.78 726.98 146.94 727.05 146.00 C 727.04 115.00 727.05 84.00 727.05 53.00 C 726.96 52.05 727.05 51.16 727.32 50.34 C 732.00 49.83 736.24 48.78 741.00 48.96 Z" fill="#4d4dce" />
<path d="M 238.00 49.95 C 242.00 50.24 246.76 49.36 250.54 50.46 C 259.08 74.94 267.70 99.38 276.30 123.84 C 278.02 124.35 277.77 122.09 278.33 121.10 C 286.56 98.07 295.07 73.13 303.32 50.31 C 307.48 49.69 312.60 49.80 316.79 50.25 C 319.01 64.39 320.38 78.76 322.34 93.00 C 324.64 109.97 326.39 127.02 328.83 144.00 C 328.75 145.47 329.61 147.46 328.87 148.75 C 325.91 149.09 321.27 149.32 318.41 148.59 C 317.86 145.28 317.66 141.80 317.54 138.45 C 316.28 135.27 317.17 131.20 316.06 128.00 C 314.33 107.45 310.92 87.07 309.54 66.46 L 308.46 66.46 C 307.80 70.09 305.99 73.47 304.96 77.00 C 297.50 97.01 290.34 117.90 282.74 137.73 C 279.72 138.42 276.14 137.86 273.00 138.04 C 271.88 138.17 271.09 137.89 270.63 137.21 C 262.42 114.83 254.40 92.35 246.16 70.00 C 246.02 69.25 245.37 67.03 244.36 67.14 C 243.04 80.78 241.18 94.30 239.70 107.94 C 238.98 110.86 239.59 114.55 238.46 117.44 C 238.35 120.50 238.25 124.11 237.42 127.00 C 237.34 129.91 237.22 133.25 236.42 136.00 C 236.08 140.03 236.36 145.03 234.87 148.75 C 231.91 149.10 227.26 149.29 224.39 148.60 C 227.81 118.32 232.34 85.65 235.99 55.00 C 236.41 53.43 235.63 50.02 238.00 49.95 Z" fill="#4d4dce" />
<path d="M 477.21 50.25 C 479.64 49.77 484.49 49.80 486.94 50.23 L 487.38 51.00 C 487.38 83.33 487.38 115.67 487.38 148.00 L 486.94 148.75 C 484.28 149.07 479.98 149.35 477.46 148.54 C 476.97 145.98 477.93 142.56 476.89 140.26 C 475.53 140.41 474.17 142.97 472.80 143.75 C 463.13 151.20 448.00 152.48 437.29 146.67 C 429.58 142.19 425.25 134.22 423.41 125.72 C 421.68 117.88 421.74 108.74 423.63 100.91 C 425.67 91.59 431.00 83.11 440.00 79.22 C 451.96 74.50 468.39 76.98 476.54 87.54 C 476.86 86.77 476.99 85.92 476.93 85.00 C 476.93 73.67 476.93 62.33 476.93 51.00 L 477.21 50.25 Z" fill="#4d4dce" />
<path d="M 962.27 50.28 C 964.73 49.81 970.25 49.64 972.58 50.42 C 972.77 62.06 972.58 74.29 972.67 86.00 L 973.09 86.83 C 974.12 87.10 974.93 85.29 975.76 84.76 C 984.11 76.94 997.26 75.48 1008.00 78.16 C 1011.51 79.50 1014.73 80.90 1017.16 83.93 C 1021.82 89.33 1022.94 97.12 1023.07 104.00 C 1023.07 118.67 1023.07 133.33 1023.07 148.00 L 1022.78 148.73 C 1020.22 149.18 1015.64 149.14 1013.06 148.75 L 1012.62 148.00 C 1012.57 132.49 1012.72 116.93 1012.54 101.43 C 1011.82 100.01 1012.07 98.36 1011.34 96.89 C 1010.18 92.37 1007.32 88.98 1003.00 87.20 C 997.30 85.19 990.50 85.63 985.00 87.99 C 978.08 90.78 973.03 97.46 972.74 105.00 C 972.49 119.36 972.82 134.23 972.58 148.58 C 970.08 149.29 964.87 149.14 962.27 148.70 L 962.05 148.00 C 962.05 115.67 962.05 83.33 962.05 51.00 L 962.27 50.28 Z" fill="#4d4dce" />
<path d="M 743.45 58.46 C 755.96 57.47 771.42 58.11 781.54 66.46 C 788.20 72.09 790.72 79.84 792.58 88.00 C 793.25 99.38 794.12 110.66 789.36 121.25 C 785.98 129.90 778.27 136.22 769.33 138.40 C 759.67 141.23 748.40 140.50 738.43 139.55 C 737.94 138.85 737.73 138.00 737.82 137.00 C 737.84 111.35 737.77 85.64 737.85 60.00 L 738.19 59.28 C 739.72 58.65 741.93 59.33 743.45 58.46 Z" fill="#ffffff" />
<path d="M 46.77 76.00 C 46.97 78.39 44.04 80.68 41.84 79.33 C 39.27 78.67 39.06 75.37 40.54 73.54 C 42.51 71.47 46.96 73.16 46.77 76.00 Z" fill="#ffffff" />
<path d="M 385.00 77.99 C 394.18 79.94 402.19 86.41 406.12 95.00 C 410.53 104.52 411.02 115.99 408.35 126.08 C 405.76 136.27 398.39 145.16 388.20 148.33 C 386.64 149.23 384.68 149.03 383.00 149.83 C 377.15 150.26 370.66 150.64 365.00 149.00 C 355.28 146.43 347.58 139.41 344.03 130.00 C 340.57 120.96 340.28 110.30 342.84 101.00 C 345.03 91.85 351.41 83.93 360.00 80.05 C 367.69 76.71 376.86 76.05 385.00 77.99 Z" fill="#4d4dce" />
<path d="M 531.42 77.46 C 539.23 76.29 548.03 76.87 555.00 80.86 C 561.80 84.53 566.15 91.66 567.99 99.00 C 569.53 104.88 569.48 110.95 569.31 117.00 L 568.87 117.71 L 568.00 117.92 C 551.33 117.92 534.67 117.92 518.00 117.92 C 517.02 117.83 516.15 117.97 515.37 118.35 C 515.76 127.08 519.49 135.52 528.00 139.01 C 534.27 141.87 540.27 141.03 547.00 140.95 C 552.74 139.88 558.17 138.44 563.15 135.27 C 565.20 134.96 564.96 139.64 565.83 141.00 C 566.90 144.17 564.38 144.12 562.35 145.37 C 557.67 147.89 553.04 148.77 548.00 149.91 C 539.55 150.32 531.69 150.80 523.82 147.31 C 515.69 144.11 509.88 137.20 507.11 129.00 C 503.73 117.56 503.91 103.99 509.30 93.18 C 513.72 84.58 521.96 78.92 531.42 77.46 Z" fill="#4d4dce" />
<path d="M 629.66 77.35 C 629.92 79.89 629.92 83.18 629.66 85.72 C 627.68 86.63 625.16 86.77 623.00 87.00 C 611.17 88.82 598.73 98.31 597.75 111.00 C 597.48 123.40 597.82 136.18 597.58 148.58 C 594.99 149.30 589.91 149.11 587.21 148.73 L 586.93 148.00 C 586.96 125.06 586.85 101.92 586.98 79.00 L 587.27 78.32 C 589.89 77.94 594.11 77.94 596.73 78.32 C 597.68 82.78 596.50 88.11 597.36 92.63 C 597.76 92.56 598.18 92.23 598.60 91.62 C 603.50 84.46 611.73 79.92 620.00 78.01 C 623.05 77.76 626.17 76.25 629.66 77.35 Z" fill="#4d4dce" />
<path d="M 692.00 79.22 C 696.75 81.36 700.10 85.24 702.08 90.00 C 704.36 95.59 705.07 102.00 705.07 108.00 C 705.07 121.33 705.07 134.67 705.07 148.00 L 704.78 148.73 C 701.99 149.11 697.11 149.31 694.42 148.58 C 694.24 135.31 694.40 121.35 694.34 108.00 C 694.21 102.18 693.37 96.00 689.72 91.25 C 685.70 86.01 677.71 85.04 671.73 86.61 C 662.13 88.49 654.92 97.23 654.71 107.00 C 654.53 120.67 654.80 134.94 654.58 148.58 C 652.10 149.29 646.85 149.14 644.27 148.70 L 644.05 148.00 C 644.04 125.67 644.05 103.33 644.05 81.00 C 643.96 80.05 644.05 79.16 644.33 78.34 C 646.98 77.91 651.11 77.97 653.79 78.29 C 654.83 81.35 653.65 85.35 654.46 88.54 C 655.99 87.80 656.71 86.01 658.00 85.00 C 666.66 76.63 681.09 74.83 692.00 79.22 Z" fill="#4d4dce" />
<path d="M 841.00 77.03 C 846.24 77.12 850.98 76.49 856.00 77.90 C 862.50 78.69 868.64 82.19 871.69 88.20 C 874.19 93.62 874.97 99.07 874.82 105.00 C 874.71 119.05 875.03 134.85 874.66 148.65 C 872.05 149.25 867.73 149.12 865.06 148.75 C 864.04 146.18 864.98 142.32 864.54 139.46 C 862.89 140.20 861.78 142.20 860.20 143.25 C 854.21 147.72 846.44 150.13 839.00 150.20 C 834.67 150.19 830.79 150.18 826.82 148.31 C 822.32 146.68 818.54 142.87 816.40 138.64 C 814.27 133.54 814.14 127.58 815.39 122.25 C 817.54 114.43 824.35 109.00 831.85 106.69 C 842.49 102.62 852.64 104.24 863.68 103.63 C 864.67 101.20 863.69 97.50 862.96 95.00 C 861.58 90.84 858.18 88.10 854.00 87.03 C 841.93 84.19 829.98 86.97 819.30 92.64 C 818.11 90.12 817.94 87.08 817.39 84.36 C 818.42 82.79 820.83 82.37 822.35 81.38 C 828.35 78.88 834.55 77.64 841.00 77.03 Z" fill="#4d4dce" />
<path d="M 930.89 78.34 C 934.41 79.41 938.67 80.16 941.82 82.22 C 942.37 84.53 940.81 87.47 940.63 89.91 C 940.18 91.47 937.60 89.68 936.73 89.35 C 928.51 86.56 919.90 85.16 911.18 86.39 C 907.13 87.31 903.50 88.41 901.41 92.36 C 900.18 95.81 900.48 100.07 903.46 102.54 C 908.46 106.41 916.01 107.55 922.00 109.08 C 928.40 111.19 934.43 112.63 939.44 117.55 C 945.24 122.60 945.71 132.19 942.68 138.77 C 938.83 146.09 930.67 148.96 923.00 149.99 C 911.66 150.70 900.52 149.89 890.32 144.66 C 890.48 142.02 891.23 138.78 892.23 136.26 C 893.36 136.05 895.26 137.16 896.33 137.62 C 901.57 139.40 907.41 141.16 913.00 141.08 C 918.26 141.04 923.16 141.58 928.00 139.14 C 932.73 137.17 935.04 131.58 933.39 126.79 C 932.47 123.47 929.02 121.26 926.00 120.08 C 919.20 117.48 912.57 116.85 906.00 114.14 C 899.28 111.90 892.34 108.09 890.42 100.66 C 889.33 95.65 889.89 90.28 892.88 86.00 C 895.72 81.89 899.90 80.02 904.45 78.46 C 913.26 76.17 922.03 76.69 930.89 78.34 Z" fill="#4d4dce" />
<path d="M 176.20 83.28 C 177.41 82.80 179.15 82.81 180.12 83.80 C 182.35 85.69 181.26 90.13 178.00 90.12 C 174.09 90.05 172.56 85.37 176.20 83.28 Z" fill="#ffffff" />
<path d="M 11.00 84.18 C 15.34 83.87 19.57 87.44 19.08 92.00 C 19.22 94.16 17.44 95.06 18.82 97.00 C 26.98 111.60 36.20 127.24 44.28 141.80 C 45.18 142.73 45.58 144.79 47.00 145.03 C 64.04 145.10 80.94 145.02 98.00 145.16 C 99.93 144.86 100.13 142.77 102.00 142.12 C 107.38 138.67 114.73 144.61 112.54 150.57 C 111.17 156.27 102.52 157.68 99.54 152.46 C 98.78 152.13 97.93 152.00 97.00 152.06 C 79.07 152.07 61.05 151.99 43.00 151.97 C 41.57 151.78 41.35 149.56 40.28 148.75 C 32.59 134.82 24.48 121.19 16.70 107.30 C 14.40 104.83 13.59 99.10 9.93 98.33 C 5.99 97.40 4.20 93.89 4.89 90.00 C 5.33 86.69 7.98 85.00 11.00 84.18 Z" fill="#0e0e55" />
<path d="M 385.14 87.70 C 393.17 90.65 397.97 98.78 399.00 107.00 C 399.75 114.71 399.71 123.06 395.85 130.00 C 392.53 136.02 386.81 140.06 380.00 140.98 C 374.97 141.10 370.28 141.60 365.61 139.42 C 358.33 136.35 353.80 129.36 352.42 121.75 C 351.51 115.65 351.41 108.99 353.01 103.00 C 354.41 97.50 357.73 92.64 362.43 89.43 C 369.04 85.39 378.00 84.87 385.14 87.70 Z" fill="#ffffff" />
<path d="M 460.26 86.60 C 469.10 88.14 476.45 95.92 476.93 105.00 C 476.93 110.67 476.93 116.33 476.93 122.00 C 476.78 130.74 469.70 138.48 461.36 140.42 C 458.87 141.45 455.66 140.94 453.00 141.08 C 444.25 141.33 436.83 134.61 434.54 126.43 C 432.10 118.81 432.30 109.74 434.13 102.00 C 435.84 95.88 439.68 90.03 445.81 87.69 C 450.00 85.73 455.82 85.45 460.26 86.60 Z" fill="#ffffff" />
<path d="M 544.00 86.15 C 545.71 86.78 547.40 87.10 549.00 88.00 C 555.36 91.23 558.39 98.21 559.12 105.00 C 559.10 106.40 560.20 108.92 558.00 109.08 C 544.67 109.08 531.33 109.08 518.00 109.08 C 517.02 109.16 516.17 108.99 515.44 108.57 C 515.90 100.24 519.76 91.07 528.00 87.78 C 533.15 85.28 538.41 85.84 544.00 86.15 Z" fill="#ffffff" />
<path d="M 10.20 88.28 C 12.51 87.38 15.10 88.33 15.36 91.00 C 16.16 94.41 11.22 96.55 9.25 93.80 C 7.38 92.01 8.38 89.61 10.20 88.28 Z" fill="#ffffff" />
<path d="M 150.00 101.77 C 153.40 101.78 155.90 104.94 156.64 108.00 C 157.04 111.40 155.07 114.45 152.00 115.85 C 150.33 116.26 149.35 115.66 148.54 117.54 C 139.56 133.98 129.22 152.14 120.54 168.54 C 100.72 168.96 79.92 168.50 60.00 168.77 C 58.38 169.37 57.74 171.28 56.00 171.88 C 53.44 172.87 49.44 172.78 47.70 170.31 C 45.11 167.90 44.85 163.77 47.00 161.00 C 50.11 156.51 56.44 157.50 59.40 161.60 C 77.13 162.03 96.08 161.76 114.00 161.83 C 115.67 161.99 116.45 161.46 117.18 160.00 C 125.66 144.36 135.02 127.99 142.97 113.00 C 141.92 110.31 141.38 107.64 143.22 105.10 C 144.71 102.64 147.15 101.59 150.00 101.77 Z" fill="#4d4dce" />
<path d="M 151.05 105.75 C 153.90 107.34 153.38 111.58 150.25 112.40 C 148.25 113.41 145.68 111.04 145.83 109.00 C 145.73 106.42 148.72 104.30 151.05 105.75 Z" fill="#ffffff" />
<path d="M 847.00 112.04 C 852.40 112.11 858.59 111.51 863.84 112.22 L 864.18 113.00 C 863.82 119.59 865.53 126.64 861.28 132.21 C 855.64 139.91 846.16 142.44 837.00 141.11 C 833.48 140.99 829.94 138.96 827.66 136.31 C 824.01 131.71 824.11 124.40 827.74 119.81 C 832.38 114.24 840.22 112.88 847.00 112.04 Z" fill="#ffffff" />
<path d="M 51.00 127.08 C 52.75 126.79 54.71 126.53 55.46 128.54 C 57.65 131.53 53.51 135.35 50.62 133.40 C 48.12 131.95 48.63 128.20 51.00 127.08 Z" fill="#ffffff" />
<path d="M 106.00 144.89 C 108.94 145.09 110.24 149.13 108.10 151.10 C 106.89 152.53 104.26 152.22 103.00 150.94 C 100.70 149.10 102.81 144.21 106.00 144.89 Z" fill="#ffffff" />
<path d="M 140.75 164.00 C 140.48 165.32 138.18 166.97 136.93 166.33 C 133.82 165.99 132.68 162.07 135.10 160.17 C 137.67 157.41 141.88 160.86 140.75 164.00 Z" fill="#ffffff" />
<path d="M 55.25 162.75 C 57.40 164.61 56.15 169.14 53.00 168.94 C 51.03 169.22 48.95 166.92 49.17 165.00 C 49.39 162.29 53.39 160.66 55.25 162.75 Z" fill="#ffffff" />
</svg>